<svg xmlns="http://www.w3.org/2000/svg" viewBox="0 0 44 34">
  <line x1="5" y1="7" x2="39" y2="7" stroke="currentColor" stroke-opacity="0.28" stroke-width="1.5" stroke-linecap="round" />
  <path d="M4 29 C 10 23, 18 21, 26 22 C 34 23, 39 27, 42 31" fill="none" stroke="#c96f3b" stroke-width="2.4" stroke-linecap="round" />
  <rect x="8" y="11" width="26" height="13" rx="4" fill="#2f5d50" />
  <path d="M20 11 H31 C 33.2 11 35 12.8 35 15 V24 H20 Z" fill="#2f5d50" />
  <rect x="11" y="13" width="7" height="5" rx="1.4" fill="#ffffff" fill-opacity="0.92" />
  <rect x="20" y="13" width="9" height="5" rx="1.4" fill="#ffffff" fill-opacity="0.9" />
  <circle cx="14.5" cy="24" r="3.1" fill="currentColor" />
  <circle cx="28.5" cy="24" r="3.1" fill="currentColor" />
  <circle cx="14.5" cy="24" r="1.2" fill="#ffffff" fill-opacity="0.92" />
  <circle cx="28.5" cy="24" r="1.2" fill="#ffffff" fill-opacity="0.92" />
  <path d="M35 16.3 L39.2 18.6 V24 H35 Z" fill="#c96f3b" fill-opacity="0.95" />
</svg>
