<svg xmlns="http://www.w3.org/2000/svg" viewBox="0 0 44 44">
  <rect width="44" height="44" rx="10" fill="#0B0B0F"/>
  <path d="M6 35 C 12 30, 17 38, 23 33 C 29 28, 32 23, 38 18" fill="none" stroke="#F7F1E8" stroke-opacity="0.25" stroke-width="2" stroke-linecap="round"/>
  <path d="M22 3.8 C 13.4 3.8, 7 10.1, 7 18.5 C 7 29.8, 22 41, 22 41 C 22 41, 37 29.8, 37 18.5 C 37 10.1, 30.6 3.8, 22 3.8 Z" fill="#FF2E63"/>
  <circle cx="22" cy="18.7" r="11.2" fill="#fffdf7" opacity="0.95"/>
  <path d="M15.4 23.2 L19.1 11.6" stroke="#FFB000" stroke-width="2.2" stroke-linecap="round"/>
  <path d="M22 22.7 L22 10.4" stroke="#FFB000" stroke-width="2.4" stroke-linecap="round"/>
  <path d="M28.6 23.2 L24.9 11.6" stroke="#FFB000" stroke-width="2.2" stroke-linecap="round"/>
  <circle cx="22" cy="17.2" r="2.1" fill="#211A28"/>
  <path d="M15 25.2 H29 C 30.3 25.2 31.4 26.3 31.4 27.6 V28.2 H12.6 V27.6 C 12.6 26.3 13.7 25.2 15 25.2 Z" fill="#211A28"/>
  <rect x="14.8" y="21.2" width="14.4" height="4.8" rx="1.7" fill="#211A28"/>
  <circle cx="17.4" cy="23.6" r="0.9" fill="#fffdf7" opacity="0.9"/>
  <circle cx="22" cy="23.6" r="0.9" fill="#fffdf7" opacity="0.9"/>
  <circle cx="26.6" cy="23.6" r="0.9" fill="#fffdf7" opacity="0.9"/>
</svg>
