<svg xmlns="http://www.w3.org/2000/svg" width="1200" height="630" viewBox="0 0 1200 630">
  <rect width="1200" height="630" fill="#0B0B0F"/>
  <rect x="44" y="44" width="1112" height="542" rx="28" fill="#17141D" stroke="#3A2E44" stroke-width="2"/>
  <circle cx="245" cy="164" r="180" fill="#FF2E63" opacity="0.22"/>
  <circle cx="1030" cy="72" r="220" fill="#FFB000" opacity="0.12"/>

  <g transform="translate(118 128) scale(6.2)">
    <path d="M6 35 C 12 30, 17 38, 23 33 C 29 28, 32 23, 38 18" fill="none" stroke="#F7F1E8" stroke-opacity="0.24" stroke-width="2" stroke-linecap="round"/>
    <path d="M22 3.8 C 13.4 3.8, 7 10.1, 7 18.5 C 7 29.8, 22 41, 22 41 C 22 41, 37 29.8, 37 18.5 C 37 10.1, 30.6 3.8, 22 3.8 Z" fill="#FF2E63"/>
    <circle cx="22" cy="18.7" r="11.2" fill="#fffdf7" opacity="0.95"/>
    <path d="M15.4 23.2 L19.1 11.6" stroke="#FFB000" stroke-width="2.2" stroke-linecap="round"/>
    <path d="M22 22.7 L22 10.4" stroke="#FFB000" stroke-width="2.4" stroke-linecap="round"/>
    <path d="M28.6 23.2 L24.9 11.6" stroke="#FFB000" stroke-width="2.2" stroke-linecap="round"/>
    <circle cx="22" cy="17.2" r="2.1" fill="#211A28"/>
    <path d="M15 25.2 H29 C 30.3 25.2 31.4 26.3 31.4 27.6 V28.2 H12.6 V27.6 C 12.6 26.3 13.7 25.2 15 25.2 Z" fill="#211A28"/>
    <rect x="14.8" y="21.2" width="14.4" height="4.8" rx="1.7" fill="#211A28"/>
    <circle cx="17.4" cy="23.6" r="0.9" fill="#fffdf7" opacity="0.9"/>
    <circle cx="22" cy="23.6" r="0.9" fill="#fffdf7" opacity="0.9"/>
    <circle cx="26.6" cy="23.6" r="0.9" fill="#fffdf7" opacity="0.9"/>
  </g>

  <text x="458" y="286" fill="#F7F1E8" font-family="Arial, Helvetica, sans-serif" font-size="100" font-weight="760" letter-spacing="0.02em">GigEze</text>
  <text x="462" y="362" fill="#A89FB0" font-family="Arial, Helvetica, sans-serif" font-size="36" font-weight="500">Tour logistics for entertainment teams</text>
  <text x="462" y="420" fill="#FFB000" font-family="Arial, Helvetica, sans-serif" font-size="28" font-weight="700" letter-spacing="0.12em">WEB + MOBILE + TYPE-FIRST</text>
</svg>
